<?xml version="1.0" encoding="UTF-8" standalone="no"?>
<svg
   version="1.1"
   width="150px"
   height="157px"
   id="svg28"
   sodipodi:docname="Algs_01-06.svg"
   inkscape:version="1.4 (e7c3feb1, 2024-10-09)"
   xmlns:inkscape="http://www.inkscape.org/namespaces/inkscape"
   xmlns:sodipodi="http://sodipodi.sourceforge.net/DTD/sodipodi-0.dtd"
   xmlns="http://www.w3.org/2000/svg"
   xmlns:svg="http://www.w3.org/2000/svg">
  <defs
     id="defs28">
    <marker
       style="overflow:visible"
       id="Triangle"
       refX="0"
       refY="0"
       orient="auto-start-reverse"
       inkscape:stockid="Triangle arrow"
       markerWidth="0.5"
       markerHeight="0.5"
       viewBox="0 0 1 1"
       inkscape:isstock="true"
       inkscape:collect="always"
       preserveAspectRatio="xMidYMid">
      <path
         transform="scale(0.5)"
         style="fill:context-stroke;fill-rule:evenodd;stroke:context-stroke;stroke-width:1pt"
         d="M 5.77,0 -2.88,5 V -5 Z"
         id="path135" />
    </marker>
    <inkscape:path-effect
       effect="spiro"
       id="path-effect29"
       is_visible="true"
       lpeversion="1" />
  </defs>
  <sodipodi:namedview
     id="namedview28"
     pagecolor="#ffffff"
     bordercolor="#000000"
     borderopacity="0.25"
     inkscape:showpageshadow="2"
     inkscape:pageopacity="0.0"
     inkscape:pagecheckerboard="0"
     inkscape:deskcolor="#d1d1d1"
     inkscape:zoom="2.4465895"
     inkscape:cx="36.581535"
     inkscape:cy="78.272223"
     inkscape:window-width="1280"
     inkscape:window-height="1288"
     inkscape:window-x="369"
     inkscape:window-y="25"
     inkscape:window-maximized="0"
     inkscape:current-layer="g28" />
  <g
     id="g28">
    <path
       style="fill:#000;stroke:#777"
       d="M 77,1 149,24 146,118 77,156 7,118 1,24 z"
       id="path1" />
    <path
       style="fill:#999999"
       d="M 3,27 22,35 23,65 5,56"
       id="path2" />
    <path
       style="fill:#f00"
       d="M 25,36 46,45 47,76 26,66"
       id="path3" />
    <path
       style="fill:#f00"
       d="M 49,46 74,55 74,88 50,77"
       id="path4" />
    <path
       style="fill:#66ff00"
       d="M 5,60 23,69 24,97 7,88"
       id="path5" />
    <path
       style="fill:#f00"
       d="M 26,70 47,80 48,109 27,98"
       id="path6" />
    <path
       style="fill:#999999"
       d="M 50,81 74,92 74,122 51,110"
       id="path7" />
    <path
       style="fill:#66ff00"
       d="M 7,91 24,101 25,126 9,117"
       id="path8" />
    <path
       style="fill:#66ff00"
       d="M 27,102 48,113 48,138 28,127"
       id="path9" />
    <path
       style="fill:#66ff00"
       d="M 51,114 74,126 74,152 51,139"
       id="path10" />
    <path
       style="fill:#999999"
       d="M 29,18 48,24 23,32 4,25"
       id="path11" />
    <path
       style="fill:#999999"
       d="M 56,10 73,16 51,23 33,17"
       id="path12" />
    <path
       style="fill:#999999"
       d="M 77,3 95,9 76,15 58,9"
       id="path13" />
    <path
       style="fill:#ff9955"
       d="M 50,25 73,33 48,42 25,33"
       id="path14" />
    <path
       style="fill:#fff"
       d="M 76,17 99,24 76,32 54,24"
       id="path15" />
    <path
       style="fill:#999999"
       d="M 97,10 120,17 101,23 79,16"
       id="path16" />
    <path
       style="fill:#999999"
       d="M 76,34 100,43 76,52 51,43"
       id="path17" />
    <path
       style="fill:#999999"
       d="M 122,18 146,25 129,32 104,24"
       id="path19" />
    <path
       style="fill:#999999"
       d="M 77,87 101,77 102,45 77,55"
       id="path20" />
    <path
       style="fill:#00f"
       d="M 126,36 125,66 104,76 105,45"
       id="path21" />
    <path
       style="fill:#00f"
       d="M 147,27 146,56 128,65 129,35"
       id="path22" />
    <path
       style="fill:#ff9955"
       d="M 77,122 100,110 101,81 77,91"
       id="path23" />
    <path
       style="fill:#00f"
       d="M 125,70 124,98 103,109 104,80"
       id="path24" />
    <path
       style="fill:#ff9955"
       d="M 146,60 145,87 127,97 128,69"
       id="path25" />
    <path
       style="fill:#ff9955"
       d="M 77,153 99,141 100,114 77,126"
       id="path26" />
    <path
       style="fill:#ff9955"
       d="M 124,102 123,128 102,140 103,113"
       id="path27" />
    <path
       style="fill:#ff9955"
       d="M 145,90 144,116 126,126 127,100"
       id="path28" />
    <path
       style="fill:#66ff00;fill-opacity:1;stroke-width:0.289017"
       d="M 37.427746,103.3088 27.312139,97.989436 27.134708,96.03229 C 26.833671,92.711724 26.19394,70.819547 26.392151,70.621337 c 0.165765,-0.165765 19.645922,8.921468 20.227862,9.436027 0.193432,0.171036 0.49098,7.061997 1.132544,26.228806 0.0439,1.31144 0.01478,2.37488 -0.0647,2.36322 -0.07948,-0.0117 -4.696532,-2.41494 -10.260115,-5.34059 z"
       id="path39" />
    <path
       style="fill:#999999;fill-opacity:1;stroke-width:0.289017"
       d="M 61.99422,82.328231 50.144509,76.895829 49.646698,61.657671 c -0.273796,-8.380987 -0.461914,-15.274054 -0.418041,-15.317927 0.111134,-0.111134 24.275587,8.590797 24.545451,8.839132 0.120556,0.11094 0.185585,7.48722 0.144508,16.391733 l -0.07469,16.190024 z"
       id="path40" />
    <path
       style="fill:#00ff00;fill-opacity:1;stroke-width:0.289017"
       d="m 36.343931,70.746012 -10.33237,-4.927974 -0.0026,-2.345436 c -0.0015,-1.289989 -0.198304,-7.860293 -0.437437,-14.600676 -0.239132,-6.740383 -0.372795,-12.317233 -0.297028,-12.393001 0.07577,-0.07577 4.759609,1.844809 10.408535,4.267947 l 10.270776,4.405706 -8.13e-4,1.628913 c -4.47e-4,0.895903 0.202967,7.651618 0.452032,15.012701 0.249065,7.361083 0.412003,13.495389 0.362085,13.631794 -0.04992,0.136401 -4.740327,-1.969587 -10.42313,-4.679974 z"
       id="path41" />
    <path
       style="fill:#ffff00;fill-opacity:1;stroke-width:0.289017"
       d="M 65.245665,27.939632 C 59.562861,25.85538 54.915546,24.081199 54.918298,23.997007 c 0.0062,-0.190003 20.495234,-6.670938 21.093263,-6.672064 0.649716,-0.0012 21.964211,6.491718 21.964803,6.691042 5.67e-4,0.189457 -21.752619,7.795004 -22.150779,7.744559 -0.136153,-0.01725 -4.897117,-1.73666 -10.57992,-3.820912 z"
       id="path42" />
    <path
       style="fill:#ff9955;fill-opacity:1;stroke-width:0.289017"
       d="m 103.1867,107.46711 c 0.004,-0.68928 0.19583,-6.26046 0.42602,-12.380405 0.23018,-6.119942 0.42189,-11.984605 0.42602,-13.032585 l 0.007,-1.905418 6.57515,-3.128216 c 3.61633,-1.720518 8.31772,-3.955739 10.44754,-4.967157 l 3.8724,-1.838942 -0.17835,3.259859 c -0.0981,1.792922 -0.33449,8.016648 -0.52534,13.830502 l -0.347,10.570644 -6.38174,3.347688 c -3.50995,1.84124 -8.17003,4.28135 -10.35572,5.42248 l -3.97399,2.07479 z"
       id="path43" />
    <path
       style="fill:#999999;fill-opacity:1;stroke-width:0.289017"
       d="m 104.24052,72.63352 c 0.0696,-1.718667 0.30008,-8.566434 0.51226,-15.21726 0.21219,-6.650825 0.49768,-12.197013 0.63443,-12.324862 0.47125,-0.440588 20.10112,-8.716747 20.27128,-8.546586 0.24712,0.247116 -0.75044,29.12807 -1.01459,29.374101 -0.17576,0.1637 -18.92376,9.167697 -20.20248,9.702532 -0.23649,0.09891 -0.29226,-0.730601 -0.2009,-2.987925 z"
       id="path44" />
    <path
       style="fill:#999999"
       d="M 101,25 126,33 103,42 79,33"
       id="path18" />
    <path
       style="fill:#999999;fill-opacity:1;stroke-width:0.289017"
       d="m 128.1997,63.193266 c 0.0645,-0.818434 0.25004,-6.235174 0.4124,-12.037197 0.16237,-5.802023 0.37144,-11.795185 0.4646,-13.318138 l 0.1694,-2.769005 8.65375,-3.843403 c 4.75957,-2.113872 8.7205,-3.77666 8.80207,-3.695083 0.30849,0.308484 -0.80659,28.099344 -1.14154,28.45035 -0.18104,0.189722 -4.18763,2.224959 -8.90353,4.522745 l -8.57436,4.177794 z"
       id="path45" />
    <path
       style="fill:#999999;stroke:#000000;stroke-width:3;stroke-linecap:square;stroke-dasharray:none;marker-end:url(#Triangle)"
       d="M 35.150972,53.952655 14.714361,78.885322"
       id="path29"
       inkscape:path-effect="#path-effect29"
       inkscape:original-d="M 35.150972,53.952655 C 28.611257,62.263544 21.662809,70.574433 14.714361,78.885322"
       transform="matrix(0.38321969,-1.4161666,1.1228538,0.48332463,-32.446453,77.88382)" />
  </g>
</svg>
